<mxfile host="app.diagrams.net" modified="2024-03-25T12:12:57.029Z" agent="Mozilla/5.0 (Windows NT 10.0; Win64; x64) AppleWebKit/537.36 (KHTML, like Gecko) Chrome/123.0.0.0 Safari/537.36" etag="u26xpm80jnL3mYrhGLsL" version="22.1.21" type="github">
  <diagram id="6a731a19-8d31-9384-78a2-239565b7b9f0" name="Page-1">
    <mxGraphModel dx="934" dy="1679" grid="1" gridSize="10" guides="1" tooltips="1" connect="1" arrows="1" fold="1" page="1" pageScale="1" pageWidth="1169" pageHeight="827" background="none" math="0" shadow="0">
      <root>
        <mxCell id="0" />
        <mxCell id="1" parent="0" />
        <mxCell id="2" value="&lt;font face=&quot;Times New Roman&quot;&gt;Визначення параметрів алгоритму&lt;/font&gt;" style="shape=mxgraph.flowchart.terminator;strokeWidth=2;gradientColor=none;gradientDirection=north;fontStyle=0;html=1;" parent="1" vertex="1">
          <mxGeometry x="203" y="-100" width="236" height="30" as="geometry" />
        </mxCell>
        <mxCell id="3" value="&lt;font face=&quot;Times New Roman&quot;&gt;Ініціалізація агентів&lt;/font&gt;" style="shape=mxgraph.flowchart.data;strokeWidth=2;gradientColor=none;gradientDirection=north;fontStyle=0;html=1;" parent="1" vertex="1">
          <mxGeometry x="240.5" y="-40" width="159" height="80" as="geometry" />
        </mxCell>
        <mxCell id="5" value="Встановлення &lt;br&gt;умови завершення" style="shape=mxgraph.flowchart.data;strokeWidth=2;gradientColor=none;gradientDirection=north;fontStyle=0;html=1;" parent="1" vertex="1">
          <mxGeometry x="235" y="65" width="159" height="80" as="geometry" />
        </mxCell>
        <mxCell id="7" style="fontStyle=1;strokeColor=#003366;strokeWidth=1;html=1;entryX=0.5;entryY=0;entryDx=0;entryDy=0;entryPerimeter=0;" parent="1" source="2" target="3" edge="1">
          <mxGeometry relative="1" as="geometry">
            <mxPoint x="320" y="-50" as="targetPoint" />
          </mxGeometry>
        </mxCell>
        <mxCell id="8" style="fontStyle=1;strokeColor=#003366;strokeWidth=1;html=1;entryX=0.529;entryY=0.008;entryDx=0;entryDy=0;entryPerimeter=0;" parent="1" source="3" target="5" edge="1">
          <mxGeometry relative="1" as="geometry">
            <mxPoint x="320" y="60" as="targetPoint" />
          </mxGeometry>
        </mxCell>
        <mxCell id="11" value="&lt;font face=&quot;Times New Roman&quot;&gt;Так&lt;/font&gt;" style="text;fontStyle=0;html=1;strokeColor=none;gradientColor=none;fillColor=none;strokeWidth=2;" parent="1" vertex="1">
          <mxGeometry x="585" y="-66" width="40" height="26" as="geometry" />
        </mxCell>
        <mxCell id="ygXGRukxeWYJXvCdXYjb-55" value="&lt;font face=&quot;Times New Roman&quot;&gt;Обчислення&lt;br&gt;фітнес функції&lt;/font&gt;" style="shape=mxgraph.flowchart.data;strokeWidth=2;gradientColor=none;gradientDirection=north;fontStyle=0;html=1;" vertex="1" parent="1">
          <mxGeometry x="235" y="170" width="159" height="80" as="geometry" />
        </mxCell>
        <mxCell id="ygXGRukxeWYJXvCdXYjb-57" value="&lt;font face=&quot;Times New Roman&quot;&gt;Виконано &lt;br&gt;умову&lt;br&gt;&amp;nbsp;завершення ?&lt;/font&gt;" style="shape=mxgraph.flowchart.decision;strokeWidth=2;gradientColor=none;gradientDirection=north;fontStyle=0;html=1;" vertex="1" parent="1">
          <mxGeometry x="515" y="-40" width="140" height="120" as="geometry" />
        </mxCell>
        <mxCell id="ygXGRukxeWYJXvCdXYjb-59" value="&lt;font face=&quot;Times New Roman&quot;&gt;Оновлення агентів&lt;/font&gt;" style="shape=mxgraph.flowchart.data;strokeWidth=2;gradientColor=none;gradientDirection=north;fontStyle=0;html=1;" vertex="1" parent="1">
          <mxGeometry x="495.5" y="110" width="159" height="80" as="geometry" />
        </mxCell>
        <mxCell id="ygXGRukxeWYJXvCdXYjb-60" style="edgeStyle=orthogonalEdgeStyle;rounded=0;orthogonalLoop=1;jettySize=auto;html=1;exitX=0.5;exitY=1;exitDx=0;exitDy=0;exitPerimeter=0;entryX=0.5;entryY=1;entryDx=0;entryDy=0;entryPerimeter=0;" edge="1" parent="1" source="ygXGRukxeWYJXvCdXYjb-55" target="ygXGRukxeWYJXvCdXYjb-59">
          <mxGeometry relative="1" as="geometry" />
        </mxCell>
        <mxCell id="ygXGRukxeWYJXvCdXYjb-61" style="edgeStyle=orthogonalEdgeStyle;rounded=0;orthogonalLoop=1;jettySize=auto;html=1;exitX=0.5;exitY=0;exitDx=0;exitDy=0;exitPerimeter=0;entryX=0.5;entryY=1;entryDx=0;entryDy=0;entryPerimeter=0;" edge="1" parent="1" source="ygXGRukxeWYJXvCdXYjb-59" target="ygXGRukxeWYJXvCdXYjb-57">
          <mxGeometry relative="1" as="geometry" />
        </mxCell>
        <mxCell id="ygXGRukxeWYJXvCdXYjb-62" style="edgeStyle=elbowEdgeStyle;rounded=0;orthogonalLoop=1;jettySize=auto;html=1;exitX=0;exitY=0.5;exitDx=0;exitDy=0;exitPerimeter=0;entryX=0.905;entryY=0.5;entryDx=0;entryDy=0;entryPerimeter=0;" edge="1" parent="1" source="ygXGRukxeWYJXvCdXYjb-57" target="ygXGRukxeWYJXvCdXYjb-55">
          <mxGeometry relative="1" as="geometry" />
        </mxCell>
        <mxCell id="ygXGRukxeWYJXvCdXYjb-63" value="&lt;font face=&quot;Times New Roman&quot;&gt;Отримання оптимального результату&amp;nbsp;&lt;/font&gt;" style="shape=mxgraph.flowchart.terminator;strokeWidth=2;gradientColor=none;gradientDirection=north;fontStyle=0;html=1;" vertex="1" parent="1">
          <mxGeometry x="467" y="-100" width="236" height="30" as="geometry" />
        </mxCell>
        <mxCell id="ygXGRukxeWYJXvCdXYjb-64" style="edgeStyle=orthogonalEdgeStyle;rounded=0;orthogonalLoop=1;jettySize=auto;html=1;exitX=0.5;exitY=1;exitDx=0;exitDy=0;exitPerimeter=0;entryX=0.5;entryY=0;entryDx=0;entryDy=0;entryPerimeter=0;" edge="1" parent="1" source="5" target="ygXGRukxeWYJXvCdXYjb-55">
          <mxGeometry relative="1" as="geometry" />
        </mxCell>
        <mxCell id="ygXGRukxeWYJXvCdXYjb-65" style="edgeStyle=orthogonalEdgeStyle;rounded=0;orthogonalLoop=1;jettySize=auto;html=1;exitX=0.5;exitY=0;exitDx=0;exitDy=0;exitPerimeter=0;entryX=0.5;entryY=1;entryDx=0;entryDy=0;entryPerimeter=0;" edge="1" parent="1" source="ygXGRukxeWYJXvCdXYjb-57" target="ygXGRukxeWYJXvCdXYjb-63">
          <mxGeometry relative="1" as="geometry" />
        </mxCell>
        <mxCell id="ygXGRukxeWYJXvCdXYjb-66" value="&lt;font face=&quot;Times New Roman&quot;&gt;Ні&lt;/font&gt;" style="text;fontStyle=0;html=1;strokeColor=none;gradientColor=none;fillColor=none;strokeWidth=2;" vertex="1" parent="1">
          <mxGeometry x="490" y="-3" width="40" height="23" as="geometry" />
        </mxCell>
      </root>
    </mxGraphModel>
  </diagram>
</mxfile>
